REM DIRINDEX 1\2,1\3
REM DIRNAME cjc140,folder01,folder02
TITLE ""
FILE "Track17.mp3" MP3
  TRACK 01 AUDIO
    TITLE "3:cjc140_053"
    INDEX 01 00:00:00
  TRACK 02 AUDIO
    TITLE "2:cjc140_054"
    INDEX 01 00:02:02
  TRACK 03 AUDIO
    TITLE "2:cjc140_055"
    INDEX 01 00:11:35
  TRACK 04 AUDIO
    TITLE "0:"
    INDEX 01 00:19:16
